<?xml version="1.0" encoding="UTF-8" standalone="no"?>
<!-- Created with Inkscape (http://www.inkscape.org/) -->

<svg
   version="1.1"
   id="svg2"
   xml:space="preserve"
   width="1436.08"
   height="1425.8667"
   viewBox="0 0 1436.08 1425.8667"
   sodipodi:docname="Cheltenham_Festival_Small_Size_Logo_Cream_RGB.eps"
   xmlns:inkscape="http://www.inkscape.org/namespaces/inkscape"
   xmlns:sodipodi="http://sodipodi.sourceforge.net/DTD/sodipodi-0.dtd"
   xmlns="http://www.w3.org/2000/svg"
   xmlns:svg="http://www.w3.org/2000/svg"><defs
     id="defs6" /><sodipodi:namedview
     id="namedview4"
     pagecolor="#ffffff"
     bordercolor="#666666"
     borderopacity="1.0"
     inkscape:pageshadow="2"
     inkscape:pageopacity="0.0"
     inkscape:pagecheckerboard="0" /><g
     id="g8"
     inkscape:groupmode="layer"
     inkscape:label="ink_ext_XXXXXX"
     transform="matrix(1.3333333,0,0,-1.3333333,0,1425.8667)"><g
       id="g10"
       transform="scale(0.1)"><path
         d="m 1412.47,1722.04 666.21,675.2 412.12,-406.63 -78.94,-80.04 -296.08,292.15 -210.25,-213.06 265.09,-261.54 -79.94,-81.03 -265.09,261.54 -297.07,-301.07 -116.05,114.48"
         style="fill:#ede2c9;fill-opacity:1;fill-rule:nonzero;stroke:none"
         id="path12" /><path
         d="m 2384.75,891.48 488.79,812.7 482.79,-290.4 -57.91,-96.31 -343.14,206.39 -140.48,-233.58 305.8,-183.94 -58.67,-97.52 -305.8,183.94 -150.63,-250.44 c -18.81,-31.3 -7.53,-47.929 14.17,-60.968 l 333.48,-200.551 -71.16,-88.399 -497.24,299.078"
         style="fill:#ede2c9;fill-opacity:1;fill-rule:nonzero;stroke:none"
         id="path14" /><path
         d="m 3697.41,238.5 c -89.81,28.301 -169.68,74 -228.92,133.898 l 77.53,96.504 c 34.45,-40.402 106.91,-95.601 191.37,-122.203 92.48,-29.097 208,-27.199 240.51,76 27.87,88.5 -34.54,152.301 -97.21,205.903 l -95.13,81.57 c -82.5,70.187 -142.4,170.07 -105.66,286.68 46.84,148.788 215.08,215.148 394.69,158.578 80.43,-25.34 149.99,-66.38 212.33,-125.79 l -84.56,-100.089 c -40.45,54.008 -105.68,99.569 -174.02,121.099 -97.85,30.83 -172.52,4.26 -194.05,-64.111 -21.95,-69.699 25.13,-121.367 93.24,-181.098 l 101.92,-88.109 C 4117.39,641 4175.56,535.801 4137.99,416.5 c -58.24,-185 -260.97,-234.598 -440.58,-178"
         style="fill:#ede2c9;fill-opacity:1;fill-rule:nonzero;stroke:none"
         id="path16" /><path
         d="m 4920.62,11.1992 57.21,831.2418 -337.82,23.231 7.91,114.949 836.83,-57.601 -7.91,-114.93 -336.41,23.16 L 5083.22,0 4920.62,11.1992"
         style="fill:#ede2c9;fill-opacity:1;fill-rule:nonzero;stroke:none"
         id="path18" /><path
         d="M 6097.18,39.8008 5957.46,978.02 6118.69,1002.06 6258.41,63.9023 6097.18,39.8008"
         style="fill:#ede2c9;fill-opacity:1;fill-rule:nonzero;stroke:none"
         id="path20" /><path
         d="m 7186.3,281 -658.52,785.38 148.93,67.24 12.98,-2.67 439.78,-547.251 c 25.55,-32.5 48.45,-66 65.61,-100.097 l 5.27,2 c -8.42,38.796 -10.88,85.898 -11.24,123.199 l -1.42,706.869 6.77,10.01 124.3,32.6 L 7306.17,325.5 7186.3,281"
         style="fill:#ede2c9;fill-opacity:1;fill-rule:nonzero;stroke:none"
         id="path22" /><path
         d="m 8019.3,1491.52 c -36.32,26.38 -72.26,54.72 -96.91,83.87 l -4.66,-3.13 c 16.47,-34.63 28.7,-85.64 37.81,-126.92 l 66.78,-308.81 252.01,169.11 z m 602.59,-431.48 -13.25,-0.42 -248.79,181.6 -312.64,-209.83 65.61,-304.519 -5.42,-12.09 -107.76,-58.781 -208.5,1024.21 115.5,77.51 843.14,-598.31 -127.89,-99.37"
         style="fill:#ede2c9;fill-opacity:1;fill-rule:nonzero;stroke:none"
         id="path24" /><path
         d="m 9177.24,1553.9 -695.43,644.75 110.81,119.5 578.99,-536.8 c 26.8,-24.84 45.4,-17.17 62.57,1.35 l 263.65,284.35 72.93,-88.7 -393.52,-424.45"
         style="fill:#ede2c9;fill-opacity:1;fill-rule:nonzero;stroke:none"
         id="path26" /><path
         d="m 1418.74,7414.39 c 12.14,-71.52 19,-193.88 -41.75,-345.12 -107.91,-268.59 -380.213,-377.23 -638.342,-273.51 -273.796,109.98 -383.496,379.68 -272.449,656.08 45.567,113.44 114.34,212.99 184.344,266.62 l 89.098,-94.84 c -59.289,-38.26 -128.039,-115.12 -164.707,-206.39 -86.946,-216.43 18.5,-364.79 216.683,-444.39 194.254,-78.05 406.443,-36.11 496.533,188.15 38.78,96.47 33.43,184.93 22.29,243.91 l 108.3,9.49"
         style="fill:#ede2c9;fill-opacity:1;fill-rule:nonzero;stroke:none"
         id="path28" /><path
         d="m 2068.41,8230.54 -353.82,272.94 -289.27,-374.95 353.83,-272.97 -99.58,-129.05 -751.047,579.38 99.577,129.06 303.75,-234.34 289.26,374.98 -303.74,234.34 99.55,129.05 751.05,-579.36 -99.56,-129.08"
         style="fill:#ede2c9;fill-opacity:1;fill-rule:nonzero;stroke:none"
         id="path30" /><path
         d="m 2519.12,8683.9 -578.62,751.54 446.47,343.76 68.58,-89.08 -317.32,-244.32 166.29,-215.99 282.81,217.75 69.43,-90.21 -282.8,-217.73 178.31,-231.58 c 22.28,-28.96 41.9,-24.49 61.93,-9.07 l 308.43,237.46 56.33,-98.49 -459.84,-354.04"
         style="fill:#ede2c9;fill-opacity:1;fill-rule:nonzero;stroke:none"
         id="path32" /><path
         d="m 3361.39,9255.26 -394.23,862.54 148.21,67.8 328.26,-718.2 c 15.19,-33.21 35.3,-33.28 58.29,-22.78 l 352.72,161.21 33.24,-109.94 -526.49,-240.63"
         style="fill:#ede2c9;fill-opacity:1;fill-rule:nonzero;stroke:none"
         id="path34" /><path
         d="m 4344.79,9619.45 -181.51,813.25 -330.5,-73.7 -25.1,112.4 818.73,182.7 25.1,-112.4 -329.13,-73.5 181.51,-813.23 -159.1,-35.52"
         style="fill:#ede2c9;fill-opacity:1;fill-rule:nonzero;stroke:none"
         id="path36" /><path
         d="m 5153.13,9745.6 15.47,948.4 563.44,-9.2 -1.84,-112.4 -400.44,6.6 -4.45,-272.6 356.89,-5.9 -1.85,-113.8 -356.88,5.8 -4.78,-292.2 c -0.59,-36.53 17.53,-45.26 42.82,-45.66 l 389.2,-6.37 -17.27,-112.13 -580.31,9.46"
         style="fill:#ede2c9;fill-opacity:1;fill-rule:nonzero;stroke:none"
         id="path38" /><path
         d="m 6838.15,9486.17 -314.68,806.53 c -10.15,26.2 -21.45,58.6 -24.08,85.6 l -6.77,1.9 c -5.32,-18.9 -15,-58.5 -24.89,-93.7 l -177.64,-631.63 -127.14,35.77 255.62,908.96 169.39,-36 8.92,-9.8 260.36,-693.53 c 11.71,-31.02 28.15,-86.73 31.75,-115.48 l 6.74,-1.89 c 6.86,24.35 19.21,73.41 28.32,105.87 l 159.76,568.03 127.14,-35.7 -260.55,-926.52 -112.25,31.59"
         style="fill:#ede2c9;fill-opacity:1;fill-rule:nonzero;stroke:none"
         id="path40" /><path
         d="m 7903.28,8942.86 238.85,377.7 -400.25,253.14 -238.87,-377.7 -137.76,87.13 507.01,801.67 137.76,-87.1 -205.04,-324.23 400.24,-253.14 205.07,324.23 137.76,-87.13 -507.01,-801.7 -137.76,87.13"
         style="fill:#ede2c9;fill-opacity:1;fill-rule:nonzero;stroke:none"
         id="path42" /><path
         d="m 9146.86,8736.56 c 20.96,39.7 43.93,79.28 69.29,107.81 l -3.76,4.17 c -31.96,-21.2 -80.72,-40.55 -120.27,-55.41 L 8795.87,8683.24 8999,8457.75 Z m -341.72,-657.69 -2.29,13.06 144.5,272.02 -252.03,279.75 -292.15,-108.11 -12.75,3.64 -73.46,98.35 984.34,351.58 93.09,-103.34 -472.75,-919.47 -116.5,112.52"
         style="fill:#ede2c9;fill-opacity:1;fill-rule:nonzero;stroke:none"
         id="path44" /><path
         d="m 9483.8,6889.06 629.8,291.8 c 30.6,14.2 65.1,30.14 95,42.44 l -3.6,7.64 c -26.5,-2.98 -71.8,-5.39 -121,-9.58 l -735.48,-40.33 -43.1,93.07 497.36,530.86 c 27.94,29.97 53.89,57.51 82.23,79.91 l -2.95,6.39 c -12.17,-7.19 -35.11,-17.81 -106.51,-50.91 l -603.05,-279.4 -54.93,118.57 859.31,398.14 95.32,-198.98 -1.7,-13.16 -470.24,-485.79 c -38.91,-39.7 -61.55,-61.04 -94.98,-85.81 l 2.36,-5.11 c 37.38,9.58 79.59,12.09 130.62,15.59 l 673.24,40.95 11.1,-7.26 86.7,-193.69 -859.33,-398.14 -66.17,142.8"
         style="fill:#ede2c9;fill-opacity:1;fill-rule:nonzero;stroke:none"
         id="path46" /><path
         d="m 7235.93,4437.84 c -180.81,-84.92 -258.74,-164.45 -426.76,-275.58 -88.69,-58.66 -98.87,-99.88 -225.32,-218.56 129.5,97.55 202.02,115.25 270.72,158.19 129.14,80.71 231.64,168.73 336.33,251.87 65.21,51.8 209.48,88.12 220.94,-9.7 7.96,130.1 -91.24,133.55 -175.91,93.78"
         style="fill:#ede2c9;fill-opacity:1;fill-rule:nonzero;stroke:none"
         id="path48" /><path
         d="m 8596.11,4955.74 c 11.73,-53.09 -10.77,-110.3 -51.67,-148.81 -76.56,-72.09 -117.63,-114.38 -125.1,-149.31 -11.96,-55.89 -101.87,-51.37 -145.28,-56.5 -72.34,-8.54 -104.04,-5.88 -125.1,56.5 -111.92,-21.66 -78.43,175.96 -179.07,234.6 25.11,-32.59 36.46,-58.15 40.1,-84.75 7.62,-55.55 -12.98,-104.15 25.73,-150.19 26.69,-31.75 46.16,-37.84 77.68,-37.82 21.06,-62.37 90.08,-69.78 162.43,-61.23 43.4,5.12 168.8,-4.67 180.76,51.22 7.47,34.93 47.95,86.26 124.5,158.35 40.9,38.51 39.06,141.14 15.02,187.94"
         style="fill:#ede2c9;fill-opacity:1;fill-rule:nonzero;stroke:none"
         id="path50" /><path
         d="m 5613.55,3715.63 c -68.6,-76.67 -354.02,-272.7 -636.51,-200.06 -260.98,-91.99 -819.5,-147.41 -1376.11,-72.64 -435,58.43 -625.5,141.4 -813.95,133.16 98.39,-15.39 192.36,-54.18 316.79,-97.15 -243.35,-41.9 -501.62,-390.98 -888.2,-487.99 572.1,-8.12 772.37,318.25 987.81,455.28 104.43,-32.28 230.08,-64.22 390.99,-88.13 568.36,-84.47 1146.5,-32.3 1407.49,59.69 472.61,-63.86 644.2,253.62 644.2,253.62 0,0 233.94,70.31 339.34,229.94 -129.45,-100.17 -291.14,-161.51 -371.85,-185.72"
         style="fill:#ede2c9;fill-opacity:1;fill-rule:nonzero;stroke:none"
         id="path52" /><path
         d="m 4242.74,6000.28 c -124.09,-102.65 -212.59,-350.9 -302.9,-558.05 -8.19,-18.8 17.64,-33.13 29.46,-16.37 170.85,242.32 224.94,437.54 299.4,558.01 18.57,30.04 3.65,40.9 -25.96,16.41"
         style="fill:#ede2c9;fill-opacity:1;fill-rule:nonzero;stroke:none"
         id="path54" /><path
         d="m 5328.46,7667.21 c -44.29,-69.26 -2.76,-163.45 -4.34,-186.27 -1.57,-22.83 -7.6,-43.27 5.71,-91.33 22.39,-80.83 185.89,-169.65 155.61,-119.19 -30.28,50.47 -17.16,142.31 0,185.7 17.16,43.4 14.14,79.94 4.04,83.77 -49.62,18.81 -111.61,67.44 -137.06,123.97 -5,11.11 -17.01,14.21 -23.96,3.35"
         style="fill:#ede2c9;fill-opacity:1;fill-rule:nonzero;stroke:none"
         id="path56" /><path
         d="m 5595.45,7478.33 c 5.02,-9.53 30.62,-22.85 45.96,-30.13 18.19,-8.62 25.32,-15.93 39.26,-9.56 13.93,6.38 5.48,34.99 10.94,65.7 6.19,34.76 16.71,61.97 0.72,66.33 -17.05,4.65 -28.89,-14.87 -52.98,-45.41 -18.46,-23.4 -57.9,-20.41 -43.9,-46.93"
         style="fill:#ede2c9;fill-opacity:1;fill-rule:nonzero;stroke:none"
         id="path58" /><path
         d="m 6220.79,4806.43 c -67.99,-11.1 -340.61,-10.81 -450.71,-25.55 -179.48,-24.02 -341.23,-49.26 -439.77,-16.42 -208.02,-76.64 -197.07,-279.19 -321.31,-396.19 -7.14,275.76 217.3,558.6 282.99,580.49 65.69,21.9 260.06,-106.57 260.06,-106.57 103.98,95.05 200.83,267.57 244.96,400.76 109.14,19.85 329.68,-88.5 380.77,-360.39 32.29,117.07 -36.62,300.37 -114.43,360.39 -29.24,77.19 -74.14,149.57 -133.92,204.78 -158.39,146.29 -441.66,231.81 -677.24,291.62 -259,-99.93 -387.4,-299.44 -480.25,-443.88 60.21,16.42 164.22,-16.43 306.56,27.37 -136.86,-169.7 -487.63,-183.03 -625.32,-588.37 -20.51,-109.38 130.75,-468.14 169.5,-532.68 6.23,89.76 -16.59,382.66 -56.42,503.02 188.84,-202.4 92.53,-462.57 367.15,-741.12 24.57,-24.92 118.5,-180.9 186.9,-153.37 165.46,66.59 223.26,45.89 366.22,130.15 121.4,71.54 159.98,135.18 264.99,215.82 18.67,14.34 1.96,43.62 -19.74,34.49 -220.14,-92.62 -342.59,-170.36 -493.25,-167.17 -13.61,0.29 -18.49,17.78 -7.18,25.35 95.48,63.92 149.65,238.7 331.6,261.79 298.12,37.83 470.56,139 628.64,145.33 14.86,3.71 39.72,-45.76 58.39,-69.34 18.68,-23.59 31.92,-21.27 32.85,-65.69 2.74,-131.39 -2.31,-404.8 -126.18,-609.63 -37.98,-120.49 159.81,-262.75 184.79,-95.07 25.7,172.56 53.05,586.86 75.28,673.56 10.7,41.72 2.67,133.48 80.96,164.73 35.58,14.2 115.42,37.81 173.59,-10.09 3.03,41.44 -25.03,85.96 -58.54,131.2 -26.99,36.43 -52.14,84.13 -82.76,137.25 -30.92,53.67 -130.36,122.63 -309.18,93.43"
         style="fill:#ede2c9;fill-opacity:1;fill-rule:nonzero;stroke:none"
         id="path60" /><path
         d="m 5978.1,7762.54 c -137.46,31.68 -269.57,40.24 -269.57,40.24 0,0 73.1,312.43 -32.83,483.44 189.11,-64.63 296.6,-260.46 308.78,-464.23 18.4,276.33 -126.06,500.07 -358.87,549.26 -13.55,7.83 -28.49,13.88 -45.3,17.42 -34.12,7.18 -73.78,3.5 -114.6,-10.08 -205.25,-23.95 -311.67,-172.39 -337.94,-326.83 -5.95,-34.91 -57.4,-43.24 -50.81,-89.52 6.96,-48.94 35.02,-71.99 241.92,-156.3 125.77,-51.25 324.54,-81.91 582.29,-99.49 0.15,0 0.35,0.03 0.5,0.03 62.94,-6.06 131.57,-11.2 187.74,-13.28 2.74,21.9 14.6,34.67 -111.31,69.34"
         style="fill:#ede2c9;fill-opacity:1;fill-rule:nonzero;stroke:none"
         id="path62" /><path
         d="m 5165.53,7796.53 c -24.95,-67.56 8.08,-186.81 99.09,-196.39 12.52,-12.22 -63.97,91.18 -51.98,153.88 2.76,14.47 -43.55,52.16 -47.11,42.51"
         style="fill:#ede2c9;fill-opacity:1;fill-rule:nonzero;stroke:none"
         id="path64" /><path
         d="m 4245.43,4587 c -30.26,-28.25 -64.56,-22.2 -86.7,-10.08 53.77,-273.86 252.05,-881.25 816.73,-1001.48 -387.08,301.52 -546.36,872.29 -614.09,1128.8 -18.98,71.86 -152.85,107.14 -210.7,119.16 74.59,-95.16 125.03,-208.15 94.76,-236.4"
         style="fill:#ede2c9;fill-opacity:1;fill-rule:nonzero;stroke:none"
         id="path66" /><path
         d="m 4543.04,5754.29 c -152.76,-152.25 -248.85,-224.58 -304.02,-310.59 -64.35,-100.34 -16.34,-290.56 42.06,-374.5 178.97,214.03 134.85,403.6 261.96,685.09"
         style="fill:#ede2c9;fill-opacity:1;fill-rule:nonzero;stroke:none"
         id="path68" /><path
         d="m 3856.91,4758.72 c -2.29,-22.16 29.97,-34.29 58.3,-49 28.34,-14.71 71.38,-44.25 98.54,-43.8 -29.2,32.85 -72.86,66.48 -68.43,93.07 6.23,37.35 36.75,162.73 72.79,232.13 18.13,34.91 46.92,68.33 68.83,41.38 4.26,-5.24 12.81,-2.3 13.06,4.44 0.8,21.7 1.99,51.69 4.79,77.74 1.87,17.31 -25.26,24.89 -35.71,12.99 -31.33,-35.68 -80.05,-58.37 -97.55,-86.76 -52.73,-85.51 -108.93,-227.17 -114.62,-282.19"
         style="fill:#ede2c9;fill-opacity:1;fill-rule:nonzero;stroke:none"
         id="path70" /><path
         d="m 4026.39,4611.39 c -27.68,-7.61 -106.68,-35.15 -243.79,-31.8 -104.98,2.56 -230.39,24.41 -358.39,90.14 -266.84,137.02 -581.12,153.35 -948.35,-24.21 14.92,201.37 123.28,222.06 255.58,274.58 -19.51,-23.94 -33.61,-53.12 -39.73,-89.95 498.16,191.6 525.53,-169.7 1119.49,-41.05 -39.91,18.5 -99.66,64.6 -146.88,92.49 -54.95,32.46 -90.16,85.01 -78.69,139.23 22.19,104.92 123.08,165.46 185.63,250.2 32.02,43.38 108.37,188.68 152.16,281.74 -120.43,38.32 -410.57,0 -520.05,65.69 -240.87,-153.28 -155.61,-366.8 -265.69,-488.67 -50.85,-56.3 -139.07,-79.52 -223.97,-107.4 26.8,20.61 53.52,45.07 78.72,77.66 43.57,53.25 63.03,91.96 71.58,138.39 0.15,-0.01 0.33,0.06 0.46,0.04 4.67,35.33 12.88,67.08 23.51,95.91 -339.39,24.21 -565.77,8.57 -822.53,-60.24 -202.83,-54.35 -417.17,-155.95 -585.64,-256.83 202,76.31 549.05,132.8 738.62,118.12 -341.92,-89.43 -641.55,-344.48 -758.58,-538.18 -52.63,-26.68 678.12,297.16 569.01,-12.11 -308.72,-472.15 -620.87,-951.59 -557.58,-1551.1 665.57,235.24 570.25,935.69 1271.12,980.06 277.01,17.54 495.66,-59.91 860.36,-77.62 149.79,-7.27 300.96,-6.45 514.17,17.15 -172.39,287.32 -214.88,504.17 -234.81,606.32 -3.32,17.02 -2.02,38.86 -11.91,46.28 -10.44,7.83 -19.92,11.72 -43.82,5.16"
         style="fill:#ede2c9;fill-opacity:1;fill-rule:nonzero;stroke:none"
         id="path72" /><path
         d="m 4009.93,6666.9 c -143.68,13.19 -226.83,83.39 -299.35,139.74 -3.71,31.33 -3.66,57.81 12.17,86.84 77.34,133.64 396.9,100.61 561.69,144.82 -174,-7.46 -271.92,24.43 -362.94,36.84 151.59,201.69 430.4,116.88 467.9,100.42 165.52,-72.67 42.12,-255.31 235.54,-561.87 33.46,-53.04 55.28,-116.1 69.51,-158.63 -222.35,90.7 -330.78,184.13 -684.52,211.84 z m 1860.37,90.85 c -92.13,-31.58 -136.29,-73.73 -222.58,-90.4 -122.66,-23.7 -270.55,-21.91 -384.92,0.33 -82.48,16.04 -215.33,29.2 -262.77,32.85 7.3,160.58 -32.85,270.06 -14.6,361.3 98.54,310.21 -23.34,433.03 -127.61,493.3 -98.88,57.15 -261.13,42.65 -371.68,-5.7 57.62,89.24 96.26,136.68 237.08,158.03 140.83,21.35 276.9,67.41 390.96,91.47 -64.16,13.37 -144.45,-15.24 -269.61,-20.86 -91.04,-4.08 -174.2,2.67 -278.55,-27.25 -176.39,-50.57 -603.03,-475.61 -738.77,-560.13 -90.11,-56.11 -77.92,-134.81 -77.92,-134.81 0,0 -162.52,-71.62 -118.88,-195.21 -173.5,-464.44 -57.53,-708.49 81.75,-814.46 137.2,-104.39 269.47,-89.82 384.59,-135.18 -128.91,91.91 -402.19,64.58 -470.18,420.62 87.64,-165.35 351.99,-252.64 619.6,-223.81 0,65.69 87.78,211.32 162.6,245.99 -63.87,-129.56 -60.22,-138.69 -69.34,-200.73 60.22,-98.53 377.72,-82.11 366.77,-217.14 138.31,140.92 158.91,234.73 152.06,341.73 83.55,-7.72 191.02,-2.78 273.11,17.74 67.29,16.83 405.57,98.63 559.93,174.3 -39.85,98.87 51.45,178.57 182.31,223.9 2.61,0.9 6.44,3.3 10.13,8.14 8.51,11.16 21.5,27.14 42.56,30.83 2.45,0.43 5.25,4.57 10.6,13.44 7.18,11.91 24.38,26.91 44.81,38.43 -44.71,-6.84 -80.74,-16.19 -111.45,-26.72"
         style="fill:#ede2c9;fill-opacity:1;fill-rule:nonzero;stroke:none"
         id="path74" /><path
         d="m 6532.48,5342.83 c 0,0 52.72,15.11 89.04,33.27 -4.03,-22.19 -27.24,-363.19 -251.1,-469.31 98.54,158.76 162.06,436.04 162.06,436.04"
         style="fill:#ede2c9;fill-opacity:1;fill-rule:nonzero;stroke:none"
         id="path76" /><path
         d="m 8517.2,5137.02 c -61.53,96.83 -160.4,252.2 -204.9,241.95 -47.24,-10.89 -33.41,-310.31 -97.41,-288.76 -63.99,21.55 -87.22,44.37 -123.82,-46.46 -22.9,-56.84 -2.22,-153.56 16.47,-217.98 4.07,-14.06 24.36,-12.49 26.47,2 6.85,47.03 23.31,104.71 62.69,124.28 70.4,34.98 98.58,7.96 125.16,-20.26 26.58,-28.23 81.85,-78.79 160.84,-35.61 26.58,14.54 76.88,68.3 81.95,129.89 -17.18,47.37 -29.28,75.62 -47.45,110.95"
         style="fill:#ede2c9;fill-opacity:1;fill-rule:nonzero;stroke:none"
         id="path78" /><path
         d="m 8076.16,6585.14 c -104,96.2 -421.8,19.02 -537.03,-61.6 8.92,61.71 5.52,122.24 -21.76,169.05 -18.12,-272.3 -348.03,-635.49 -263.54,-848.35 72.9,296.59 194.74,405.13 262.31,597.26 102.16,99.86 288.8,161.4 560.02,143.64"
         style="fill:#ede2c9;fill-opacity:1;fill-rule:nonzero;stroke:none"
         id="path80" /><path
         d="m 7830.08,5580.33 c -76.59,-13.55 -136.96,-30.98 -125.02,-56.93 9.34,-37.11 15.91,-64.34 23.56,-92.62 85.56,-78.51 152.58,-158.77 200.96,-180.36 53.3,-23.78 62.83,69.03 -2.9,185.82 -19,33.76 -55.89,79.08 -96.6,144.09"
         style="fill:#ede2c9;fill-opacity:1;fill-rule:nonzero;stroke:none"
         id="path82" /><path
         d="m 7446.28,4039.84 c -51.29,-24.87 -34.15,-184.1 -122.72,-312.49 -40.21,-58.27 -25.91,-128.63 5.32,-146.63 31.23,-18 105.02,59.05 107.71,134.53 3.03,84.75 65.56,351.67 9.69,324.59"
         style="fill:#ede2c9;fill-opacity:1;fill-rule:nonzero;stroke:none"
         id="path84" /><path
         d="M 431.633,4761.6 0,4630.19 431.633,4498.78 563.047,4067.14 694.457,4498.78 1126.09,4630.19 694.457,4761.6 563.047,5193.23 431.633,4761.6"
         style="fill:#ede2c9;fill-opacity:1;fill-rule:nonzero;stroke:none"
         id="path86" /><path
         d="m 10076.2,4761.6 -431.65,-131.41 431.65,-131.41 131.4,-431.64 131.4,431.64 431.6,131.41 -431.6,131.41 -131.4,431.63 -131.4,-431.63"
         style="fill:#ede2c9;fill-opacity:1;fill-rule:nonzero;stroke:none"
         id="path88" /><path
         d="m 5926.99,2878.92 c -33.68,-1.77 -112.82,50.06 -102.13,166.97 60.87,12.33 134.98,37.43 134.98,37.43 0,0 47.24,-62.15 109.4,-72.91 -32.46,-54.11 -96.82,-129.1 -142.25,-131.49 z m 620.38,1253.23 c -58.78,-123.62 -95.99,-467.9 -73.96,-522.97 12.39,-30.97 36.79,-147.84 -55,-199.24 -43.48,-24.35 -62.82,-47.65 -92.68,-90.3 -33.18,-47.38 -116.45,-197.24 -245.14,-238.88 -13.97,-4.61 -44.03,-21.42 -62.88,16.28 -65.07,130.15 -49.94,320.83 42.75,353.41 -76.04,11.3 -138.31,-10.84 -181.98,-40.15 -107.44,-72.13 -130.09,-222.86 -135.69,-306.19 -11.95,-177.81 146.29,-349.08 254.75,-258.23 61.17,51.24 118.53,108.91 182.91,164.21 24.97,11.64 56.45,27.31 85.5,68.98 46.41,66.59 57.44,130.88 117.73,202.05 33.65,39.73 47.57,64.87 91.05,89.21 91.79,51.4 70.87,205.38 58.48,236.36 -22.03,55.07 -32.75,299.98 14.16,525.46"
         style="fill:#ede2c9;fill-opacity:1;fill-rule:nonzero;stroke:none"
         id="path90" /><path
         d="m 7148.77,5790.25 c 3.93,-74.41 12.25,-154.61 51.09,-200.75 -94.07,58.24 -193.95,123.32 -255.75,164.95 46.41,33.78 126.37,59.51 204.66,35.8 z m 508.87,-499.9 c -171.51,114 -205.81,136.2 -386.4,252.22 -38.08,45.88 -94.83,178.57 -68.6,307.71 -31.89,13.11 -186.14,-3.03 -272.4,-86.26 -80.63,55.27 -162.22,118.31 -230.79,172.03 203.75,204.31 358.07,258.48 444.13,297.92 20.18,9.25 32.29,23.56 32.06,32.74 -1,41.6 -298.37,34.03 -528.9,-291.31 -160.27,126.03 -285.62,226.43 -373.54,303.54 241.38,261.41 577.34,488.41 1150.38,548.44 33.42,3.5 107.93,29.41 -3.02,47.92 -573.05,84.74 -1081.52,-84.75 -1309.53,-202.79 5.52,-4.76 20.57,-16.39 23.96,-19.92 18.16,-18.92 2.27,-45.4 -21.8,-67.44 4.59,-12.1 16.11,-44.4 -9.09,-65.1 -15.4,-21.96 -15.31,-21.6 -44.84,-52.96 59.84,-51.84 181.67,-159.18 184.32,-162.51 2.64,-3.33 1.77,-10.12 -4.55,-8.34 -38.21,10.81 -71.03,-15.71 -60.84,-27.9 92.59,-110.77 229.51,-234.96 413.07,-385.78 -27.46,-47.69 -56.84,-124.4 -63.9,-185.83 22.84,60.47 63.84,118.31 98.2,159.6 295.37,-218.17 683.01,-440.88 1009.89,-600.28 24.21,-11.81 28.75,-4.23 32.72,2.01 6.29,9.88 7.65,20.21 -10.53,32.29"
         style="fill:#ede2c9;fill-opacity:1;fill-rule:nonzero;stroke:none"
         id="path92" /><path
         d="m 6192.37,6179.7 c -64.69,66.56 -147.42,147.52 -226.48,271.16 -12.42,0.55 -32.93,-1.06 -90.19,24.94 -39.59,-7.84 -57.75,-8.59 -95.58,-7.08 -307.06,-254.39 -382.87,-352.6 -509.74,-517.54 -151.58,15.12 -293.33,-0.02 -357.15,-74.65 921.37,-28.27 1298.69,-670.93 1715.1,-411.63 -327.63,2 -483.5,189.65 -676.96,265.34 2.42,6.54 109.22,280.45 241,449.46"
         style="fill:#ede2c9;fill-opacity:1;fill-rule:nonzero;stroke:none"
         id="path94" /><path
         d="m 7015.46,2829.24 c -59.95,-61.26 -167.22,15.6 -152.09,103.38 47.99,38.99 79.61,49.9 123.58,89.11 44.58,-56.73 166.35,-77.23 166.35,-77.23 0,0 -83.18,-59.41 -137.84,-115.26 z m 665.37,1795.9 c -23.41,32.64 -35.04,60.72 -57.15,97.32 -31.65,52.39 -119.17,96.91 -229.63,73.78 -306.04,-64.08 -307.12,-20.88 -509.67,-72.13 -80.67,10.55 -145.46,73.67 -160.86,97.83 62.33,194.92 121.43,341.99 141.14,462.35 19.17,117.03 -15.13,277.45 -52.07,319.88 52.15,-258.32 -71.42,-529.23 -176.95,-801.27 13.55,-21.25 128.13,-131.12 210.43,-164.48 -83.8,-36.68 -120.95,-102.97 -32.11,-111.77 103.65,-10.27 159.05,1.79 320.19,51.84 98.11,30.47 117.37,77.11 228.17,113.74 110.45,23.13 112.97,23.62 154.32,-21.5 33.3,-36.32 72.45,-97.5 95.85,-130.14 23.4,-32.64 6.81,-180.32 -14.13,-332.93 -19,-138.54 -40.18,-377.46 -48.42,-496.37 -8.04,-116.01 0,-236.08 -78.7,-302.67 -57.58,-48.72 -137.39,-28.24 -175.54,-133.17 -31,-85.26 -36.46,-165.22 -95.16,-217.06 -13.55,-11.97 -50.12,-41.72 -69.58,-48.51 -16.84,-5.88 -22.46,0.24 -26.99,4.23 -67.29,59.22 -130.35,249.9 -63.26,347.26 C 6829.6,3350.52 6721.4,2979 6838.5,2821.81 c 46.31,-62.18 123.52,-97.3 199,-33.48 55.32,46.77 137.39,115.51 210.58,161.24 107.67,46.34 83.15,127.61 121.3,232.54 38.15,104.93 66.79,146.32 122.38,197.3 42.08,38.59 106.93,40.15 135.4,113.18 42.45,108.89 -12.38,121.85 -4.34,237.85 8.25,118.91 23.12,331.27 42.12,469.81 20.93,152.61 50.5,210.11 59.96,296.34 4.79,43.62 -20.67,95.91 -44.07,128.55"
         style="fill:#ede2c9;fill-opacity:1;fill-rule:nonzero;stroke:none"
         id="path96" /><path
         d="m 8371.67,6300.26 c -63.97,38.58 -99.87,126.84 -137.21,229.01 32.04,18.14 13.27,46.25 -1.01,78.69 -5.7,12.98 -16.38,21.68 -42.37,27.25 -24.96,32.76 -36.56,47.64 -29.26,60.53 209.61,162.91 206.83,382.85 262.31,427.76 -175.28,12.09 -275.67,-212.89 -379.6,-208.47 -11.65,33.03 -28.22,50.94 -49.42,59.9 -37.5,15.84 -86.89,2.64 -121.53,1.96 7.78,102.43 17.11,201.07 38.04,263.64 -86.5,-5.06 -214.13,-139.24 -270.55,-223.37 -16.97,36.46 -33.81,67.67 -76.24,82.11 -78.57,26.73 -185.89,-73.65 -221.21,-66.06 -43.63,65.87 -82.66,92.5 -120.33,92.01 -64.54,-0.85 -111.45,-94.05 -167.2,-98.07 -64.75,64.49 -107.5,85.68 -140.23,80.76 -56.73,-8.52 -73.13,-102.08 -138.22,-119.6 -185.63,174.27 -201.52,-29.27 -273.91,-58.01 -55.77,35.02 -93.73,46.8 -121.31,45.38 -73.4,-3.78 -63.18,-115.39 -108.71,-134.66 -18.38,21.26 -33.3,34.57 -47.42,41.09 -69.77,32.19 -96.6,-114.01 -115.51,-152.34 37.83,22.7 82.47,117.28 173.27,79.45 49.94,18.91 59.87,58.95 116.3,78.85 26.97,9.51 61.03,11.35 108.18,-2.68 45.65,4.26 81.39,64.1 149.31,77.68 40.36,8.07 76.49,5.32 118.8,-20.68 100.63,13.62 113.97,63.34 159.65,69.61 38.59,5.3 84.14,-3.04 116.02,-44.89 62.58,1.61 99.42,65.4 164.45,61.54 24.83,-1.48 69.62,-23.21 96.85,-71.63 90.57,9.67 106.95,70.11 215.91,45.9 36.73,-8.16 52.96,-25.72 90.79,-55.99 68.27,93.04 104.83,158.31 222.31,210.53 -23.05,-76.84 -6.5,-142.66 -28.1,-222.64 -18.66,-69.11 -78.69,-149.82 -90.55,-180.57 62.85,-12.79 115.07,83.81 149.34,150.5 48.73,-7.84 154.9,-25.23 136.43,-146.48 11.1,4.03 27.24,24.21 35.06,51.3 63.77,-55.93 71.53,-145.54 84.12,-164.43 62.16,-9.93 63.16,-96.95 42.24,-100.75 71.7,-173.62 74.96,-221.03 138.93,-259.61 43.5,-26.24 44.78,-117.27 35.39,-151.44 -39.08,-114.8 0.97,-224.88 13.37,-327.93 12.07,94.3 -11.69,141.75 6.5,216.61 9.94,40.89 32.33,92.63 41.71,126.8 9.39,34.17 8.11,125.2 -35.39,151.44"
         style="fill:#ede2c9;fill-opacity:1;fill-rule:nonzero;stroke:none"
         id="path98" /><path
         d="m 8008.48,5077.49 c 10.34,226.98 256.29,434.32 271.94,444 25.93,16.03 28.96,43.27 -14.84,49.84 -55.12,8.27 -199.36,32.82 -277.9,37.9 -152.82,9.89 -246.3,-5.14 -299.54,-19.96 -45.85,189.95 -103.07,464.44 -142.51,782.62 102.6,119.11 176.79,160.87 287.69,169.83 -6.42,-82.69 -154.59,-116.78 -108.46,-236.58 0,0 202.15,14.27 150.44,-138.06 -55.63,54.09 -141.86,15.1 -232.04,2.02 36.46,-54.72 34.3,-129.13 166.47,-145.28 18.07,-2.2 37.34,-31.42 49.69,-25.55 12.35,5.88 5.93,26.21 10,38.9 7.97,24.9 16.99,50.15 16.68,84.09 48.8,-25.49 12.6,-192.02 74.55,-404.04 21.63,-74.01 -175.97,104.3 -236.6,159.13 -20.32,18.38 -24.25,2.68 -15.83,-25.74 23.15,-78.16 51.31,-142.83 79.9,-197.19 157.36,20.1 416.33,-20.8 461.89,-24.63 40.94,-3.45 32.41,57.9 29.1,93.36 -7.06,75.66 -27.92,181.79 -45.14,249.44 -6.91,27.11 -0.76,41.62 6.81,43.89 10.25,3.08 20.13,-15.59 25.94,-34 45.52,-144.16 65.84,-261.86 91.39,-334.65 11.3,-1.36 21.04,2.46 27.94,-28.6 3.03,-13.62 8.33,-31.02 12.67,-57.31 16.84,-24.41 39.17,-65.29 46.35,-91.75 14.79,-54.44 -1.85,-98.14 -0.09,-138.44 -2.13,32.95 -18.23,94.55 -18.66,112.14 -0.44,17.84 -12.79,37.15 -18.81,45.38 -7.45,-21.94 -35.37,-17.42 -68.32,-15.04 -10.7,0.77 -19.04,2.92 -25.96,5.62 -81.28,-29.59 -179.65,-187.45 -304.75,-401.34"
         style="fill:#ede2c9;fill-opacity:1;fill-rule:nonzero;stroke:none"
         id="path100" /><path
         d="m 7606.32,5487.49 c -64.7,6.65 -119.18,37.93 -205.94,114.6 -185.64,125.1 -73.24,300.27 -33.58,373.34 15.29,104.98 48.62,176.22 121.07,272.4 17.68,-271.25 76.69,-550.47 118.45,-760.34"
         style="fill:#ede2c9;fill-opacity:1;fill-rule:nonzero;stroke:none"
         id="path102" /><path
         d="m 5767.47,7455.69 c 147.68,-158.57 85.57,-281.29 166.54,-363.77 80.96,-82.48 102.15,-68.86 208.33,-178.57 -13.12,28.75 -82.89,112.61 -111.48,147.04 -35.82,43.13 -14.63,187.91 -263.39,395.3"
         style="fill:#ede2c9;fill-opacity:1;fill-rule:nonzero;stroke:none"
         id="path104" /></g></g></svg>
